PathFileType	4	(X/Y/Z)	E:\3-PhD\Data\MocapData\ElaboratedData\009\pre\dynamicElaborations\RunN3\RunN3.trc
DataRate	CameraRate	NumFrames	NumMarkers	Units	OrigDataRate	DataStartFrame
200	200	4	54	mm	200	4.530000e+02
Frame#	Time	FHD			LBHD			RBHD			C7			T10			CLAV			LSHO			LUUPA			LMUPA			LDUPA			LLEP			LMEP			LRAD			LUL			LRFIN			RSHO			RUPA1			RMUPA			RDUPA			RLEP			RMEP			RRAD			RUL			RUFIN			RASI			USACR			LSACR			RSACR			LTHI1			LTHI2			LTHI3			LTHI4			LTIB1			LTIB2			LTIB3			LTIB4			LLMAL			LHEE			LMT1			LMT2			RTHI			RTHI2			RTHI3			RTHI4			RLFC			RTIB1			RTIB2			RTIB3			RTIB4			RLMAL			RHEE			RMT1			RMT2			RMT5		
		X1	Y1	Z1	X2	Y2	Z2	X3	Y3	Z3	X4	Y4	Z4	X5	Y5	Z5	X6	Y6	Z6	X7	Y7	Z7	X8	Y8	Z8	X9	Y9	Z9	X10	Y10	Z10	X11	Y11	Z11	X12	Y12	Z12	X13	Y13	Z13	X14	Y14	Z14	X15	Y15	Z15	X16	Y16	Z16	X17	Y17	Z17	X18	Y18	Z18	X19	Y19	Z19	X20	Y20	Z20	X21	Y21	Z21	X22	Y22	Z22	X23	Y23	Z23	X24	Y24	Z24	X25	Y25	Z25	X26	Y26	Z26	X27	Y27	Z27	X28	Y28	Z28	X29	Y29	Z29	X30	Y30	Z30	X31	Y31	Z31	X32	Y32	Z32	X33	Y33	Z33	X34	Y34	Z34	X35	Y35	Z35	X36	Y36	Z36	X37	Y37	Z37	X38	Y38	Z38	X39	Y39	Z39	X40	Y40	Z40	X41	Y41	Z41	X42	Y42	Z42	X43	Y43	Z43	X44	Y44	Z44	X45	Y45	Z45	X46	Y46	Z46	X47	Y47	Z47	X48	Y48	Z48	X49	Y49	Z49	X50	Y50	Z50	X51	Y51	Z51	X52	Y52	Z52	X53	Y53	Z53	X54	Y54	Z54	

460	2.295000	-489.015239	1448.105793	624.040011	-626.448782	1450.314020	481.683583	-635.383307	1433.029475	610.228537	-700.023267	1338.782717	540.471069	-915.786781	1058.303769	529.745028	-617.920718	1200.033550	527.582021	-643.459861	1294.280844	402.318654	-733.608787	1156.998845	283.439607	-696.687256	1129.069328	272.904689	-743.102817	1095.553823	252.779734	-751.926901	981.862767	217.674984	-762.719651	944.223785	286.133202	-509.370226	1013.057323	315.166329	-495.806334	956.087122	270.853362	-439.831572	1044.809787	283.859533	-632.714883	1264.999733	692.555690	-769.151881	1192.091012	791.424359	-777.234751	1145.674144	783.758064	-826.497723	1162.733990	814.279672	-946.458385	1102.856939	847.327117	-981.725296	1111.360591	781.519013	-863.672547	864.353577	778.478004	-924.120959	846.499658	815.338479	-828.566994	814.979270	827.564073	-808.206354	838.254335	628.711520	-956.274727	959.227495	509.597470	-954.663252	934.611324	474.601928	-966.854586	922.019935	530.902695	-731.275106	714.706794	258.745785	-667.742273	661.493261	242.026659	-630.017438	672.449067	267.717889	-670.495622	604.476009	219.798145	-572.357260	336.673199	155.428396	-625.430289	328.154793	87.147880	-593.138211	309.996387	108.935123	-598.541806	226.801822	100.560429	-671.645263	102.890888	15.195583	-755.284217	54.777614	28.607509	-537.735435	52.752127	76.544175	-528.331018	57.218315	30.399063	-786.404567	637.309475	720.538815	-732.861578	624.825051	752.859646	-709.213997	651.150179	761.701752	-685.021727	553.385030	751.118110	-606.269812	495.708969	767.015587	-593.183613	348.541833	609.943041	-694.216752	324.144657	568.155650	-650.618291	306.013333	563.426705	-638.085785	283.906648	509.175928	-731.466260	244.047590	455.711247	-765.660729	269.747230	366.455693	-575.782687	160.463068	429.759396	-601.709209	143.033457	457.564964	-670.374878	121.553898	462.260333	
461	2.300000	-467.044445	1442.617499	632.012327	-602.275194	1444.273807	487.713833	-613.076983	1427.065122	615.948740	-676.919604	1332.965080	545.074067	-893.262689	1053.446545	532.522404	-594.444557	1193.510391	534.111587	-616.387365	1287.981349	408.131009	-698.829711	1148.911646	286.296121	-661.035965	1121.648379	277.701499	-705.504883	1087.119520	255.396382	-711.128905	973.213586	220.713585	-722.885176	935.105134	288.562661	-474.692127	1014.060135	327.194276	-457.201224	957.980093	283.058188	-405.592515	1048.816601	298.533949	-612.685077	1258.356148	699.580688	-752.780337	1184.020388	794.157364	-761.525667	1137.605979	784.438213	-811.097464	1154.484537	815.000970	-932.493368	1096.559802	844.745434	-964.747089	1104.783453	777.557296	-858.242206	853.276685	782.413780	-920.372164	838.517381	817.792526	-827.053818	804.365423	834.181642	-784.017330	832.741301	630.517011	-933.953475	953.307236	513.104418	-931.912228	928.960291	478.025045	-943.878329	915.854468	534.295639	-712.230698	708.668693	257.967189	-649.775573	655.083261	238.613613	-610.562691	667.167050	261.594338	-653.693604	597.462366	218.358722	-558.303700	331.102326	152.735101	-612.558783	325.356941	85.181766	-580.978384	305.447883	106.530722	-590.934365	222.377464	98.288449	-670.922819	101.856212	14.151656	-755.704680	54.501249	27.431073	-538.411565	52.955127	75.612093	-528.903203	56.850735	29.351834	-761.426834	634.250596	724.284388	-707.973635	623.158632	757.533643	-685.050890	650.022436	766.427212	-658.414542	552.811653	756.252699	-578.009921	497.103564	773.110081	-555.223799	347.779369	618.073809	-653.768860	318.317320	574.347219	-608.897057	301.566775	570.432810	-594.437996	279.635135	517.500384	-684.036986	234.556595	462.340857	-716.892103	256.886880	371.753088	-524.292404	157.990591	442.508580	-550.273584	139.972083	469.991585	-617.750844	115.310357	473.183545	
462	2.305000	-445.300285	1437.599332	640.509875	-578.194976	1438.766066	494.214770	-590.962842	1421.646805	622.097745	-653.919832	1327.697539	550.034423	-870.788677	1049.029450	535.966805	-571.123859	1187.380023	541.143273	-589.226789	1281.993629	414.514816	-663.391928	1141.511105	289.798934	-624.882646	1114.794356	283.303283	-667.246810	1079.471762	258.710395	-669.894769	965.342424	224.394047	-682.732346	926.717039	291.462571	-440.302562	1015.079469	339.604061	-419.020336	960.025172	295.758638	-371.817179	1052.689576	313.607258	-592.938885	1252.199922	706.965549	-736.547324	1176.918506	797.203739	-745.748910	1130.556240	785.940213	-795.729307	1147.420681	816.218935	-918.534708	1090.939208	842.746246	-947.716862	1098.656889	774.114626	-852.137750	843.635055	786.330526	-915.855051	831.821143	819.837213	-825.045812	795.221085	840.534817	-759.917764	827.473267	632.810715	-911.712314	947.779190	517.422978	-909.375176	923.684568	482.303817	-920.916776	910.128743	538.579682	-693.639438	703.664779	257.681628	-632.438964	649.615203	235.656028	-591.872142	662.582307	256.058231	-637.510489	591.506880	217.134021	-545.294425	326.461161	149.868313	-600.639709	323.291843	83.108662	-569.713750	301.790059	103.996957	-583.781072	219.004007	96.009449	-670.204868	101.699468	13.383995	-756.164225	55.042749	26.668781	-539.115092	53.256680	74.848957	-529.551530	56.643132	28.455611	-736.450539	631.431897	728.127680	-683.049297	621.659521	762.160728	-660.834420	649.013829	771.077974	-631.863732	552.404783	761.136551	-549.887750	498.562924	778.760881	-517.280274	346.991255	626.291110	-613.004052	312.449971	580.930152	-567.009746	297.185518	577.891093	-550.581739	275.375641	526.395819	-636.040725	225.021149	469.767289	-667.398073	243.805545	377.924562	-472.732336	155.903302	456.219262	-498.693804	137.325248	483.422030	-564.829083	109.467937	485.316469	
463	2.310000	-423.721361	1433.094914	649.506475	-554.195549	1433.864869	501.199135	-568.987364	1416.866905	628.703780	-630.976525	1323.048544	555.385305	-848.288972	1045.028799	540.001406	-547.932006	1181.714484	548.705081	-562.021179	1276.406791	421.521212	-627.472151	1134.945460	294.100735	-588.421982	1108.653813	289.786818	-628.551935	1072.763008	262.858415	-628.447082	958.404035	228.778203	-642.451871	919.206902	294.912290	-406.258182	1016.152610	352.387784	-381.354321	962.241249	308.914736	-338.545001	1056.447287	329.034753	-573.446916	1246.628087	714.708137	-720.382047	1170.911877	800.628161	-729.851671	1124.631696	788.358585	-780.328204	1141.665332	817.978214	-904.513930	1086.131137	841.406025	-930.621182	1093.197232	771.307684	-845.153867	835.529658	790.143868	-910.374719	826.451001	821.423842	-822.299329	787.586711	846.491117	-735.898719	822.550422	635.627910	-889.434060	942.712001	522.416786	-886.938374	918.816057	487.308756	-897.907954	904.926274	543.623554	-675.339460	699.833051	257.950716	-615.501966	645.253925	233.336224	-573.775710	658.786312	251.479891	-621.705548	586.829433	216.153644	-533.431121	322.531820	146.807702	-589.925238	321.673874	80.987386	-559.515513	298.792346	101.365204	-577.212010	216.432826	93.720603	-669.463839	102.209800	12.800803	-756.577288	56.244501	26.216291	-539.739980	53.577994	74.164876	-530.162863	56.520751	27.633673	-711.459856	628.870855	732.087730	-658.065470	620.326950	766.734945	-636.525682	648.123177	775.652518	-605.361050	552.146229	765.764070	-521.928829	500.035540	783.984162	-479.401980	346.181091	634.598816	-571.971949	306.589460	587.903468	-525.049110	292.934671	585.828251	-506.575262	271.198239	535.838180	-587.558806	215.564109	477.992266	-617.233504	230.670945	384.997457	-421.243614	154.283520	470.877125	-447.120369	135.170439	497.814107	-511.764870	104.143163	498.611712	
